<svg width="877" height="640" viewBox="0 0 877 640" fill="none" xmlns="http://www.w3.org/2000/svg">
<g id="undraw_web_shopping_dd4l 1">
<path id="Vector" d="M645 0.365509H0.275269V413.276H645V0.365509Z" fill="#E6E6E6"/>
<path id="Vector_2" d="M626.564 52.1548H18.7111V388.848H626.564V52.1548Z" fill="white"/>
<path id="Vector_3" d="M644.725 0H0V27.3903H644.725V0Z" fill="#F28446"/>
<path id="Vector_4" d="M20.3542 19.0799C23.1579 19.0799 25.4308 16.8071 25.4308 14.0034C25.4308 11.1996 23.1579 8.92679 20.3542 8.92679C17.5505 8.92679 15.2776 11.1996 15.2776 14.0034C15.2776 16.8071 17.5505 19.0799 20.3542 19.0799Z" fill="white"/>
<path id="Vector_5" d="M39.6236 19.0799C42.4273 19.0799 44.7002 16.8071 44.7002 14.0034C44.7002 11.1996 42.4273 8.92679 39.6236 8.92679C36.8199 8.92679 34.5471 11.1996 34.5471 14.0034C34.5471 16.8071 36.8199 19.0799 39.6236 19.0799Z" fill="white"/>
<path id="Vector_6" d="M58.893 19.0799C61.6967 19.0799 63.9696 16.8071 63.9696 14.0034C63.9696 11.1996 61.6967 8.92679 58.893 8.92679C56.0893 8.92679 53.8165 11.1996 53.8165 14.0034C53.8165 16.8071 56.0893 19.0799 58.893 19.0799Z" fill="white"/>
<path id="Vector_7" d="M212.388 79.8477H93.5006V208.829H212.388V79.8477Z" fill="#E6E6E6"/>
<path id="Vector_8" d="M382.08 79.8477H263.193V208.829H382.08V79.8477Z" fill="#E6E6E6"/>
<path id="Vector_9" d="M551.772 79.8477H432.885V208.829H551.772V79.8477Z" fill="#E6E6E6"/>
<path id="Vector_10" d="M212.388 232.176H93.5006V361.158H212.388V232.176Z" fill="#E6E6E6"/>
<path id="Vector_11" d="M382.08 232.176H263.193V361.158H382.08V232.176Z" fill="#E6E6E6"/>
<path id="Vector_12" d="M551.772 232.176H432.885V361.158H551.772V232.176Z" fill="#E6E6E6"/>
<path id="Vector_13" d="M291.928 265.325L313.65 256.737L316.175 299.676C316.175 299.676 320.722 312.81 319.206 317.862C319.206 317.862 320.217 326.45 317.691 326.955C315.165 327.46 308.093 328.47 307.588 327.965C307.083 327.46 307.083 325.945 307.083 325.945C307.083 325.945 302.031 329.481 301.526 333.522C301.526 333.522 280.309 340.089 279.804 334.027C279.299 327.965 290.412 322.914 290.412 322.914L299 309.779L291.928 265.325Z" fill="white"/>
<path id="Vector_14" d="M337.897 265.325L359.619 256.737L362.145 299.676C362.145 299.676 366.692 312.81 365.176 317.862C365.176 317.862 366.187 326.45 363.661 326.955C361.135 327.46 354.063 328.47 353.557 327.965C353.052 327.46 353.052 325.945 353.052 325.945C353.052 325.945 348.001 329.481 347.496 333.522C347.496 333.522 326.279 340.089 325.774 334.027C325.268 327.965 336.382 322.914 336.382 322.914L344.97 309.779L337.897 265.325Z" fill="white"/>
<path id="Vector_15" d="M340.022 99.5098C340.022 99.5098 335.397 112.434 340.756 118.262L336.289 133.614C336.289 133.614 352.162 181.236 347.627 187.888C347.627 187.888 330.695 196.354 296.831 184.864L310.588 131.498L308.623 108.972L311.344 98.3893L317.391 97.7845C317.391 97.7845 313.763 111.391 320.415 113.507C327.067 115.624 333.556 98.1242 333.556 98.1242L340.022 99.5098Z" fill="#3F3D56"/>
<path id="Vector_16" d="M126.422 182.941L132.258 185.329L160.116 148.716L168.871 191.696L174.708 190.635C178.452 153.58 181.505 115.785 177.759 97.9093L156.136 96.9807L146.32 128.287L141.544 149.512L126.422 182.941Z" fill="white"/>
<path id="Vector_17" d="M480.678 97.6123C480.678 97.6123 472.712 108.687 473.101 113.155C473.489 117.624 478.541 190.482 478.541 190.482L490.392 191.065L486.895 138.607L489.809 124.424L496.998 190.482L511.57 190.87L498.552 105.19L496.027 97.6124L480.678 97.6123Z" fill="white"/>
<path id="Vector_18" d="M525.7 276.018C523.585 273.48 519.949 272.107 516.458 271.366C516.562 271.048 505.839 268.834 505.66 269.29L501.619 266.071L489.204 272.518L482.227 267.769L478.985 268.919C479.117 268.347 468.924 270.112 468.924 270.112C466.977 270.182 464.49 270.304 461.706 270.518C451.957 271.268 451.207 296.516 451.207 296.516C455.693 294.681 460.476 293.68 465.321 293.561L467.956 323.763C481.508 322.601 495.722 323.953 510.451 327.263L517.36 303.522L533.449 297.266C533.449 297.266 530.7 282.017 525.7 276.018Z" fill="#3F3D56"/>
<path id="Vector_19" d="M180.441 261.638C178.698 259.547 175.703 258.417 172.826 257.805C172.912 257.544 164.077 255.719 163.929 256.095L160.599 253.443L150.369 258.755L144.62 254.841L141.95 255.789C142.059 255.318 133.66 256.773 133.66 256.773C132.056 256.83 130.006 256.931 127.713 257.107C119.68 257.725 119.062 278.528 119.062 278.528C122.758 277.016 126.699 276.191 130.691 276.093L132.862 337.007C144.029 336.05 155.741 337.164 167.877 339.891L173.569 284.301L186.826 279.146C186.826 279.146 184.56 266.582 180.441 261.638Z" fill="white"/>
<path id="Vector_20" d="M613 612.618L532.578 629.079L530.745 628.892L460.071 621.759V532.196L546.587 517.569L609.346 524.888L609.369 525.285V525.472L613 612.618Z" fill="#E6E6E6"/>
<path id="Vector_21" opacity="0.1" d="M613 612.618L532.578 629.079L530.745 628.892V537.076L609.369 525.285L613 612.618Z" fill="black"/>
<path id="Vector_22" opacity="0.05" d="M609.369 525.472L609.346 525.495L530.745 537.076L460.071 532.196L546.587 517.569L609.346 524.888L609.369 525.285V525.472Z" fill="black"/>
<path id="Vector_23" d="M518.697 566.645L469.801 563.453L468.303 586.405L517.199 589.596L518.697 566.645Z" fill="white"/>
<path id="Vector_24" d="M506.733 573.38L480.788 571.686L480.267 579.669L506.212 581.363L506.733 573.38Z" fill="#F28446"/>
<path id="Vector_25" d="M722 612.618L641.578 629.079L639.745 628.892L569.071 621.759V532.196L655.587 517.569L718.346 524.888L718.369 525.285V525.472L722 612.618Z" fill="#F28446"/>
<path id="Vector_26" opacity="0.1" d="M722 612.618L641.578 629.079L639.745 628.892V537.076L718.369 525.285L722 612.618Z" fill="black"/>
<path id="Vector_27" opacity="0.05" d="M718.369 525.472L718.346 525.495L639.745 537.076L569.071 532.196L655.587 517.569L718.346 524.888L718.369 525.285V525.472Z" fill="black"/>
<path id="Vector_28" d="M627.697 566.645L578.801 563.453L577.303 586.405L626.199 589.596L627.697 566.645Z" fill="white"/>
<path id="Vector_29" d="M615.733 573.38L589.788 571.686L589.267 579.669L615.212 581.363L615.733 573.38Z" fill="#F28446"/>
<g id="woman-shopping">
<path id="Vector_30" d="M780.195 165.621C780.195 165.621 794.384 202.277 768.37 202.277C742.356 202.277 808.574 238.934 834.588 217.649C860.602 196.365 845.23 195.183 845.23 195.183C845.23 195.183 810.939 198.73 812.121 167.986L780.195 165.621Z" fill="#FFB8B8"/>
<path id="Vector_31" d="M798.679 176.655C821.776 176.655 840.499 157.931 840.499 134.835C840.499 111.739 821.776 93.0155 798.679 93.0155C775.583 93.0155 756.86 111.739 756.86 134.835C756.86 157.931 775.583 176.655 798.679 176.655Z" fill="#2F2E41"/>
<path id="Vector_32" d="M773.1 318.159L728.166 434.04C728.166 434.04 705.7 469.514 713.977 504.988C722.254 540.462 745 605.025 745 605.025C745 605.025 762.183 609.397 761 594.025C759.818 578.652 761.737 504.126 744 484.025L815.669 402.114L818.034 495.528C818.034 495.528 813.304 538.097 814.486 557.017C815.669 575.936 818.034 607.863 818.034 607.863L832.223 605.498C832.223 605.498 851.365 518.404 849 490.025C849 490.025 892.934 352.134 848 319.025L773.1 318.159Z" fill="#2F2E41"/>
<path id="Vector_33" d="M749.94 604.832C749.94 604.832 744.154 603.359 743.488 608.665C742.821 613.971 730.652 637.569 743.357 638.75C756.062 639.931 760.457 628.045 762.585 619.688C764.713 611.332 765.519 610.852 767.296 609.251C769.073 607.65 773.302 598.878 767.995 598.212C762.689 597.545 759.969 592.327 759.969 592.327C759.969 592.327 758.296 606.96 749.94 604.832Z" fill="#2F2E41"/>
<path id="Vector_34" d="M827.297 590.729C827.297 590.729 816.567 589.196 817.333 593.028C818.1 596.86 815.801 612.954 817.333 614.487C818.866 616.02 821.932 619.086 821.932 621.385C821.932 623.684 822.698 631.348 835.727 629.049C848.756 626.75 845.69 615.254 844.924 613.721C844.158 612.188 834.961 604.524 835.727 599.925C836.494 595.327 831.895 587.663 827.297 590.729Z" fill="#2F2E41"/>
<path id="Vector_35" d="M799.195 171.242C815.193 171.242 828.162 158.274 828.162 142.276C828.162 126.279 815.193 113.31 799.195 113.31C783.198 113.31 770.229 126.279 770.229 142.276C770.229 158.274 783.198 171.242 799.195 171.242Z" fill="#FFB8B8"/>
<path id="Vector_36" d="M826.902 182.053C826.902 182.053 837.005 202.042 806.553 202.609C797.191 202.783 786.057 195.961 781.461 187.803C778.754 182.997 778.07 189.635 773.691 189.148C765.4 188.227 756.542 191.666 748.616 195.881C747.592 196.425 746.789 197.307 746.343 198.377C745.898 199.447 745.838 200.638 746.173 201.747C752.184 221.691 769.35 317.628 772 322.851C778.767 336.19 852 313.851 852 313.851C853.004 277.558 839.83 226.78 863 189.851C857.903 186.022 852.037 183.341 845.806 181.995C839.574 180.649 833.125 180.669 826.902 182.053V182.053Z" fill="#EDEDED"/>
<path id="Vector_37" d="M826.283 120.002L805.06 108.886L775.753 113.433L769.69 140.214L784.784 139.633L789 129.794V139.471L795.965 139.203L800.007 123.539L802.534 140.214L827.292 139.708L826.283 120.002Z" fill="#2F2E41"/>
<path id="Vector_38" d="M800.88 94.0207C810.2 94.0207 817.755 86.4657 817.755 77.1461C817.755 67.8266 810.2 60.2716 800.88 60.2716C791.561 60.2716 784.006 67.8266 784.006 77.1461C784.006 86.4657 791.561 94.0207 800.88 94.0207Z" fill="#2F2E41"/>
<path id="Vector_39" d="M779.604 72.0104C779.604 67.9798 781.047 64.0824 783.671 61.0229C786.295 57.9635 789.927 55.9441 793.91 55.33C791.507 54.9621 789.052 55.1182 786.714 55.7874C784.376 56.4567 782.21 57.6234 780.365 59.2075C778.52 60.7917 777.039 62.7559 776.024 64.9657C775.009 67.1755 774.483 69.5786 774.483 72.0104C774.483 74.4422 775.009 76.8453 776.024 79.055C777.039 81.2648 778.52 83.229 780.365 84.8132C782.21 86.3974 784.376 87.564 786.714 88.2333C789.052 88.9026 791.507 89.0586 793.91 88.6908C789.927 88.0766 786.295 86.0572 783.671 82.9978C781.047 79.9384 779.604 76.041 779.604 72.0104V72.0104Z" fill="#2F2E41"/>
<g id="held-box">
<path id="Vector_40" d="M877 473.618L796.578 490.079L794.745 489.892L724.071 482.759V393.196L810.587 378.569L873.346 385.888L873.369 386.285V386.472L877 473.618Z" fill="#E6E6E6"/>
<path id="Vector_41" opacity="0.1" d="M877 473.618L796.578 490.079L794.745 489.892V398.076L873.369 386.285L877 473.618Z" fill="black"/>
<path id="Vector_42" opacity="0.05" d="M873.369 386.472L873.346 386.495L794.745 398.076L724.071 393.196L810.587 378.569L873.346 385.888L873.369 386.285V386.472Z" fill="black"/>
<path id="Vector_43" d="M782.697 427.645L733.801 424.453L732.303 447.405L781.199 450.596L782.697 427.645Z" fill="white"/>
<path id="Vector_44" d="M770.733 434.38L744.788 432.686L744.267 440.669L770.212 442.363L770.733 434.38Z" fill="#F28446"/>
</g>
<path id="Vector_45" d="M751.721 370.194C751.721 370.194 722.159 393.844 735.166 402.121C748.173 410.398 763.546 370.194 763.546 370.194H751.721Z" fill="#FFB8B8"/>
<path id="Vector_46" d="M753 195.025C751.469 193.299 732.133 203.16 735 216.025L736.349 305.159C736.349 305.159 729.254 378.472 746.991 378.472C764.728 378.472 762.635 380.937 765 375.025C767.365 369.112 768 319.025 768 319.025L753 195.025Z" fill="#EDEDED"/>
<path id="Vector_47" d="M844.454 362.194C844.454 362.194 859.827 402.398 872.834 394.121C885.841 385.844 856.279 362.194 856.279 362.194H844.454Z" fill="#FFB8B8"/>
<path id="Vector_48" d="M848 311.851C848 311.851 840.635 360.939 843 366.851C845.365 372.764 843.272 370.298 861.009 370.298C878.746 370.298 871.651 296.986 871.651 296.986L873 207.851C875.867 194.987 856.531 185.126 855 186.851L838 244.851L848 311.851Z" fill="#EDEDED"/>
</g>
</g>
</svg>
