<svg width="165" height="584" viewBox="0 0 165 584" fill="none" xmlns="http://www.w3.org/2000/svg">
<g id="woman-shopping">
<path id="Vector" d="M69.7707 100C69.7707 100 83.9602 136.656 57.946 136.656C31.9318 136.656 98.1498 173.313 124.164 152.028C150.178 130.744 134.806 129.562 134.806 129.562C134.806 129.562 100.515 133.109 101.697 102.365L69.7707 100Z" fill="#FFB8B8"/>
<path id="Vector_2" d="M86.6794 121.655C109.776 121.655 128.499 102.931 128.499 79.8351C128.499 56.7388 109.776 38.0155 86.6794 38.0155C63.5831 38.0155 44.8599 56.7388 44.8599 79.8351C44.8599 102.931 63.5831 121.655 86.6794 121.655Z" fill="#2F2E41"/>
<path id="Vector_3" d="M61.1 263.159L16.1664 379.04C16.1664 379.04 -6.30039 414.514 1.97683 449.988C10.2541 485.462 33 550.025 33 550.025C33 550.025 50.1825 554.397 49 539.025C47.8175 523.652 49.737 449.126 32 429.025L103.669 347.114L106.034 440.528C106.034 440.528 101.304 483.097 102.486 502.017C103.669 520.936 106.034 552.863 106.034 552.863L120.223 550.498C120.223 550.498 139.365 463.404 137 435.025C137 435.025 180.934 297.134 136 264.025L61.1 263.159Z" fill="#2F2E41"/>
<path id="Vector_4" d="M37.9396 549.832C37.9396 549.832 32.1542 548.359 31.4876 553.665C30.821 558.971 18.6522 582.569 31.3568 583.75C44.0615 584.931 48.457 573.045 50.5848 564.688C52.7126 556.332 53.5191 555.852 55.2958 554.251C57.0725 552.65 61.3016 543.878 55.9953 543.212C50.6891 542.545 47.9687 537.327 47.9687 537.327C47.9687 537.327 46.2963 551.96 37.9396 549.832Z" fill="#2F2E41"/>
<path id="Vector_5" d="M115.297 535.729C115.297 535.729 104.567 534.196 105.333 538.028C106.1 541.86 103.801 557.954 105.333 559.487C106.866 561.02 109.932 564.086 109.932 566.385C109.932 568.684 110.698 576.348 123.727 574.049C136.756 571.75 133.69 560.254 132.924 558.721C132.158 557.188 122.961 549.524 123.727 544.925C124.494 540.327 119.895 532.663 115.297 535.729Z" fill="#2F2E41"/>
<path id="Vector_6" d="M87.1955 116.242C103.193 116.242 116.162 103.274 116.162 87.2761C116.162 71.2786 103.193 58.3101 87.1955 58.3101C71.198 58.3101 58.2294 71.2786 58.2294 87.2761C58.2294 103.274 71.198 116.242 87.1955 116.242Z" fill="#FFB8B8"/>
<path id="Vector_7" d="M114.902 127.053C114.902 127.053 125.005 147.042 94.5526 147.609C85.1909 147.783 74.0572 140.961 69.4613 132.803C66.7536 127.997 66.0695 134.635 61.6914 134.148C53.3998 133.227 44.5418 136.666 36.6156 140.881C35.5919 141.425 34.7886 142.307 34.3432 143.377C33.8977 144.447 33.8377 145.638 34.1733 146.747C40.1842 166.691 57.3501 262.628 60 267.851C66.7669 281.19 140 258.851 140 258.851C141.004 222.558 127.83 171.78 151 134.851C145.903 131.022 140.037 128.341 133.806 126.995C127.574 125.649 121.125 125.669 114.902 127.053Z" fill="#EDEDED"/>
<path id="Vector_8" d="M114.283 65.002L93.06 53.886L63.753 58.433L57.69 85.214L72.784 84.633L77 74.794V84.471L83.965 84.203L88.007 68.539L90.534 85.214L115.292 84.708L114.283 65.002Z" fill="#2F2E41"/>
<path id="Vector_9" d="M88.8804 39.0207C98.1999 39.0207 105.755 31.4657 105.755 22.1461C105.755 12.8266 98.1999 5.27158 88.8804 5.27158C79.5608 5.27158 72.0059 12.8266 72.0059 22.1461C72.0059 31.4657 79.5608 39.0207 88.8804 39.0207Z" fill="#2F2E41"/>
<path id="Vector_10" d="M67.6038 17.0104C67.604 12.9798 69.0466 9.08236 71.6707 6.02295C74.2947 2.96354 77.9269 0.944141 81.9105 0.329984C79.5066 -0.0378725 77.0517 0.118177 74.7138 0.787443C72.3759 1.45671 70.2103 2.62338 68.3652 4.20755C66.5202 5.79171 65.0394 7.75595 64.0242 9.96571C63.009 12.1755 62.4833 14.5786 62.4833 17.0104C62.4833 19.4422 63.009 21.8453 64.0242 24.055C65.0394 26.2648 66.5202 28.229 68.3652 29.8132C70.2103 31.3974 72.3759 32.564 74.7138 33.2333C77.0517 33.9026 79.5066 34.0586 81.9105 33.6908C77.9269 33.0766 74.2947 31.0572 71.6707 27.9978C69.0466 24.9384 67.604 21.041 67.6038 17.0104Z" fill="#2F2E41"/>
<g id="held-box">
<path id="Vector_11" d="M165 418.618L84.578 435.079L82.745 434.892L12.071 427.759V338.196L98.587 323.569L161.346 330.888L161.369 331.285V331.472L165 418.618Z" fill="#E6E6E6"/>
<path id="Vector_12" opacity="0.1" d="M165 418.618L84.578 435.079L82.745 434.892V343.076L161.369 331.285L165 418.618Z" fill="black"/>
<path id="Vector_13" opacity="0.05" d="M161.369 331.472L161.346 331.495L82.745 343.076L12.071 338.196L98.587 323.569L161.346 330.888L161.369 331.285V331.472Z" fill="black"/>
<path id="Vector_14" d="M70.697 372.645L21.801 369.453L20.3031 392.405L69.1991 395.596L70.697 372.645Z" fill="white"/>
<path id="Vector_15" d="M58.7329 379.38L32.7881 377.686L32.2671 385.669L58.2119 387.363L58.7329 379.38Z" fill="#F28446"/>
</g>
<path id="Vector_16" d="M39.7209 315.194C39.7209 315.194 10.1593 338.844 23.1664 347.121C36.1735 355.398 51.5455 315.194 51.5455 315.194H39.7209Z" fill="#FFB8B8"/>
<path id="Vector_17" d="M132.454 307.194C132.454 307.194 147.827 347.398 160.834 339.121C173.841 330.844 144.279 307.194 144.279 307.194H132.454Z" fill="#FFB8B8"/>
<g id="hands">
<path id="Vector_18" d="M41 140.025C39.4687 138.299 20.1327 148.16 23 161.025L24.3489 250.159C24.3489 250.159 17.2541 323.472 34.9911 323.472C52.728 323.472 50.635 325.937 53 320.025C55.365 314.112 56 264.025 56 264.025L41 140.025Z" fill="#EDEDED"/>
<path id="Vector_19" d="M136 256.851C136 256.851 128.635 305.939 131 311.851C133.365 317.764 131.272 315.298 149.009 315.298C166.746 315.298 159.651 241.986 159.651 241.986L161 152.851C163.867 139.987 144.531 130.126 143 131.851L126 189.851L136 256.851Z" fill="#EDEDED"/>
</g>
</g>
</svg>
